<svg xmlns="http://www.w3.org/2000/svg" viewBox="0 0 800 800"><path fill="none" stroke="#c74440" class="dcg-svg-curve" paint-order="fill stroke markers" d="M-6.36 237.824h0l137.335-.308 42.409-.529 18.232-.44 12.683-.433 10.107-.445 8.521-.462 7.531-.487 6.738-.511 6.143-.536 5.747-.571 5.55-.622 5.35-.674 5.152-.725 4.955-.775 4.954-.857 4.954-.948 4.757-1.002 4.756-1.1 4.756-1.203 4.756-1.315 4.954-1.495 4.955-1.628 4.954-1.766 5.153-1.988 5.35-2.227 5.747-2.573 6.144-2.944 6.936-3.528 9.512-5.068 12.089-6.412 5.548-2.73 4.558-2.046 3.766-1.515 3.369-1.192 2.972-.908 2.577-.665 2.378-.508 2.18-.372 1.981-.256 1.982-.178 1.982-.097 2.576-.005 2.576.131 1.784.17 1.982.265 1.981.342 2.18.461 2.378.602 2.775.825 2.972 1.018 3.37 1.304 3.963 1.71 4.558 2.155 5.747 2.923 9.512 5.085 11.494 6.09 7.134 3.56 6.144 2.87 5.747 2.496 5.549 2.23 5.35 1.981 5.153 1.754 4.954 1.547 4.955 1.417 4.954 1.294 4.954 1.179 4.955 1.07 4.954.971 4.954.879 5.153.823 5.152.74 5.351.689 5.549.635 5.747.583 5.945.532 6.342.495 6.936.468 7.53.434 8.522.41 9.908.387 12.089.37 15.656.35 22.393.326 38.842.287 97.105.178 19.421.008" stroke-linecap="round" stroke-linejoin="round" stroke-miterlimit="10" stroke-width="7.5"/><path fill="none" stroke="#2d70b3" class="dcg-svg-curve" paint-order="fill stroke markers" d="M-8.313 237.838h0l284.553.266 18.52.358 8.96.317 6.571.33 5.177.34 4.58.373 3.983.393 3.783.445 3.584.495 3.386.546 3.385.634 3.186.687 3.186.79 3.186.903 3.186 1.033 3.186 1.18 3.186 1.344 3.186 1.529 3.186 1.733 3.186 1.96 3.186 2.21 3.186 2.484 3.385 2.965 3.386 3.328 3.385 3.718 3.584 4.387 3.584 4.877 3.784 5.7 3.982 6.63 4.182 7.667 4.38 8.802 4.58 10.024 4.979 11.807 5.376 13.74 5.775 15.79 6.571 19.092 7.368 22.59 8.761 28.136 10.554 35.226 13.54 46.59 19.117 67.255 32.06 114.386L559.56 813" stroke-linecap="round" stroke-linejoin="round" stroke-miterlimit="10" stroke-width="10"/><path fill="#2d70b3" class="dcg-svg-region" paint-order="stroke fill markers" d="M-.5 803h242.85l39.767-142.766 25-88.311 15.235-52.524 11.132-37.111 8.79-28.061 7.226-21.894 6.25-17.793 5.469-14.476 4.687-11.43 4.297-9.557 3.906-7.824 3.516-6.263 3.125-4.897 2.93-3.98 2.539-2.946 2.344-2.288 2.148-1.723 1.953-1.249 1.563-.777 1.367-.517 1.367-.364.976-.165.977-.087.977-.008.976.07.977.15 1.172.284 1.171.397 1.368.604 1.562.876 1.758 1.22 1.953 1.641 2.149 2.146 2.343 2.736 2.54 3.414 2.93 4.495 3.124 5.415 3.516 6.803 3.906 8.371 4.297 10.093 4.687 11.94 5.47 14.978 6.25 18.26 7.226 22.31 8.593 27.785 10.743 36.065 14.062 48.61 20.313 71.687 35.742 127.728L556.775 803h.022L509.07 631.97l-24.61-87.366-16.21-56.56-12.11-41.181-9.57-31.473-8.007-25.274-7.032-21.136-6.25-17.754-5.664-15.094-5.078-12.621-4.687-10.812-4.493-9.556-4.296-8.376-4.102-7.284-3.906-6.294-3.711-5.408-3.516-4.626-3.515-4.162-3.32-3.528-3.321-3.16-3.32-2.818-3.32-2.503-3.126-2.091-3.125-1.857-3.125-1.645-3.125-1.453-3.125-1.28-3.125-1.126-3.125-.988-3.125-.866-3.125-.758-3.125-.663-3.32-.611-3.32-.529-3.516-.481-3.71-.433-4.103-.402-4.492-.364-5.273-.342-6.445-.32-8.985-.317-18.945-.36-276.172-.26" fill-opacity=".1"/><path fill="none" stroke="#388c46" class="dcg-svg-curve" paint-order="fill stroke markers" d="M239.56 813h0l57.987-208.186 25.09-88.614 15.532-53.533 11.55-38.482 9.16-29.238 7.765-23.547 6.77-19.334 5.974-15.948 5.377-13.333 4.978-11.396 4.58-9.626 4.38-8.41 4.182-7.287 3.983-6.273 3.783-5.37 3.784-4.815 3.584-4.075 3.584-3.63 3.584-3.217 3.386-2.686 3.385-2.375 3.385-2.09 3.385-1.836 3.186-1.516 3.186-1.333 3.186-1.17 3.186-1.025 3.186-.896 3.385-.828 3.386-.715 3.385-.617 3.584-.56 3.584-.48 3.784-.428 3.982-.38 4.381-.346 4.978-.319 5.775-.29 7.169-.268 9.558-.245 14.934-.221 32.259-.174 136.601-.05h111.91" stroke-linecap="round" stroke-linejoin="round" stroke-miterlimit="10" stroke-width="10"/><path fill="#388c46" class="dcg-svg-region" paint-order="stroke fill markers" d="m242.35 803 39.767-142.766 25-88.311 15.235-52.524 11.132-37.111 8.79-28.061 7.226-21.894 6.25-17.793 5.469-14.476 4.687-11.43 4.297-9.557 3.906-7.824 3.516-6.263 3.125-4.897 2.93-3.98 2.539-2.946 2.344-2.288 2.148-1.723 1.953-1.249 1.563-.777 1.367-.517 1.367-.364.976-.165.977-.087.977-.008.976.07.977.15 1.172.284 1.171.397 1.368.604 1.562.876 1.758 1.22 1.953 1.641 2.149 2.146 2.343 2.736 2.54 3.414 2.93 4.495 3.124 5.415 3.516 6.803 3.906 8.371 4.297 10.093 4.687 11.94 5.47 14.978 6.25 18.26 7.226 22.31 8.593 27.785 10.743 36.065 14.062 48.61 20.313 71.687 35.742 127.728L556.775 803H799.5V237.838H646.57l-96.484.075-26.758.184-13.476.223-8.985.247-6.836.268-5.664.294-4.883.323-4.296.349-3.907.38-3.71.43-3.516.477-3.516.558-3.32.611-3.32.707-3.32.816-3.321.94-3.32 1.08-3.32 1.24-3.321 1.422-3.32 1.624-3.32 1.85-3.321 2.103-3.32 2.38-3.32 2.685-3.516 3.205-3.516 3.607-3.71 4.275-3.712 4.786-3.906 5.616-3.906 6.232-4.102 7.218-4.297 8.307-4.687 9.917-5.078 11.712-5.47 13.666-6.054 16.284-6.64 19.071-7.618 23.174-9.18 29.362-11.523 38.446-15.625 53.897-25 88.326L242.341 803" fill-opacity=".1"/><path fill="none" stroke="#ffc435" class="dcg-svg-curve" paint-order="fill stroke markers" d="M240.96 808h0l41.391-148.6 24.85-87.77 15.383-53.02 11.242-37.436L342.7 452.9l7.297-22.026 6.114-17.324 5.325-14.037 4.733-11.49 4.339-9.588 3.747-7.457 3.55-6.288 3.155-4.904 2.761-3.725 2.564-2.965 2.367-2.296 2.17-1.722 1.972-1.242 1.577-.767 1.38-.505 1.184-.309.986-.169.986-.088.986-.008.987.072.986.153.986.233 1.183.385 1.38.594 1.578.868 1.775 1.216 1.973 1.642 2.169 2.154 2.367 2.754 2.563 3.442 2.959 4.538 3.155 5.472 3.55 6.882 3.945 8.473 4.338 10.219 4.734 12.091 5.522 15.168 6.31 18.487 7.298 22.583 8.678 28.115 10.847 36.474 14.397 49.83 20.905 73.847 37.472 133.976L558.172 808" stroke-linecap="round" stroke-linejoin="round" stroke-miterlimit="10" stroke-width="5"/><path fill="#ffc435" class="dcg-svg-region" paint-order="stroke fill markers" d="M-.5 803h242.85l39.767-142.766 25-88.311 15.235-52.524 11.132-37.111 8.79-28.061 7.226-21.894 6.25-17.793 5.469-14.476 4.687-11.43 4.297-9.557 3.906-7.824 3.516-6.263 3.125-4.897 2.93-3.98 2.539-2.946 2.344-2.288 2.148-1.723 1.953-1.249 1.563-.777 1.367-.517 1.367-.364.976-.165.977-.087.977-.008.976.07.977.15 1.172.284 1.171.397 1.368.604 1.562.876 1.758 1.22 1.953 1.641 2.149 2.146 2.343 2.736 2.54 3.414 2.93 4.495 3.124 5.415 3.516 6.803 3.906 8.371 4.297 10.093 4.687 11.94 5.47 14.978 6.25 18.26 7.226 22.31 8.593 27.785 10.743 36.065 14.062 48.61 20.313 71.687 35.742 127.728L556.775 803H799.5v-3.5H-.5v3.5" fill-opacity=".1"/></svg>