<svg xmlns="http://www.w3.org/2000/svg" viewBox="0 0 800 800"><path fill="none" stroke="#c74440" class="dcg-svg-curve" paint-order="fill stroke markers" d="M-6.36 237.838h811.72" stroke-linecap="round" stroke-linejoin="round" stroke-miterlimit="10" stroke-width="7.5"/><path fill="none" stroke="#2d70b3" class="dcg-svg-curve" paint-order="fill stroke markers" d="M-8.313 237.838h0l269.42.266 18.718.363 8.96.32 6.372.323 5.178.34 4.58.377 3.982.397 3.784.45 3.584.504 3.385.557 3.186.607 3.186.7 3.186.807 3.186.929 2.987.997 2.987 1.138 2.987 1.294 2.987 1.473 2.987 1.672 2.987 1.898 2.986 2.149 2.987 2.43 3.186 2.938 3.186 3.334 3.187 3.773 3.186 4.26 3.186 4.79 3.385 5.727 3.385 6.437 3.385 7.2 3.584 8.513 3.585 9.478 3.783 11.098 3.983 12.935 3.982 14.242 4.182 16.36 4.58 19.545 4.779 22.135 5.177 25.86 5.775 30.94 6.372 36.397 7.168 43.318 8.364 53.064 9.956 65.807 12.545 85.67 8.766 61.35" stroke-linecap="round" stroke-linejoin="round" stroke-miterlimit="10" stroke-width="10"/><path fill="#2d70b3" class="dcg-svg-region" paint-order="stroke fill markers" d="M-.5 803h322.556l.296-2.039 11.132-74.223 8.79-56.123 7.226-43.787 6.25-35.586 5.469-28.95 4.687-22.862 4.297-19.113 3.906-15.648 3.516-12.527 3.125-9.794 2.93-7.96 2.539-5.891 2.344-4.577 2.148-3.446 1.953-2.497 1.563-1.555 1.367-1.034 1.172-.642.976-.363.781-.177.782-.075 1.172.075.78.177.977.363 1.172.642 1.367 1.034 1.563 1.555 1.758 2.22 1.953 3.043 2.148 4.034 2.344 5.2 2.54 6.544 2.733 8.063 3.125 10.438 3.32 12.428 3.712 15.394 4.101 18.688 4.493 22.257 5.078 27.108 5.859 33.434 6.836 41.36 8.008 50.92 9.765 64.686L476.916 803h.642l-13.41-92.912-11.132-75.005-9.18-59.65-7.617-47.375-6.64-39.259-6.056-33.769-5.468-28.564-5.078-24.675-4.688-21.06-4.297-17.777-4.101-15.562-3.907-13.529-3.71-11.692-3.712-10.585-3.515-9.041-3.516-8.125-3.32-6.879-3.32-6.155-3.32-5.483-3.126-4.594-3.125-4.091-3.125-3.632-3.125-3.214-3.125-2.838-3.125-2.5-3.125-2.198-2.93-1.815-2.93-1.604-2.929-1.415-2.93-1.247-2.93-1.098-3.124-1.025-3.125-.894-3.125-.778-3.125-.677-3.32-.623-3.32-.536-3.516-.487-3.711-.436-4.102-.405-4.492-.364-5.274-.342-6.445-.32-8.984-.316-18.75-.356-261.133-.26" fill-opacity=".1"/><path fill="none" stroke="#388c46" class="dcg-svg-curve" paint-order="fill stroke markers" d="M320.027 813h0l2.61-18.438 15.532-107.066 11.55-76.963 9.16-58.477 7.765-47.094 6.77-38.668 5.974-31.896 5.377-26.665 4.978-22.793 4.58-19.252 4.38-16.818 4.182-14.575 3.983-12.546 3.783-10.74 3.784-9.63 3.584-8.151 3.584-7.26 3.385-6.096 3.385-5.412 3.386-4.785 3.385-4.213 3.186-3.494 3.186-3.081 3.186-2.71 3.186-2.38 3.186-2.084 3.186-1.822 3.186-1.591 3.186-1.387 3.186-1.208 3.186-1.05 3.186-.914 3.186-.792 3.186-.688 3.385-.63 3.386-.543 3.584-.49 3.783-.438 3.983-.387 4.38-.352 4.979-.323 5.774-.293 6.97-.265 9.359-.246 14.337-.22 30.267-.178 121.07-.058h115.494" stroke-linecap="round" stroke-linejoin="round" stroke-miterlimit="10" stroke-width="10"/><path fill="#388c46" class="dcg-svg-region" paint-order="stroke fill markers" d="m322.056 803 .296-2.039 11.132-74.223 8.79-56.123 7.226-43.787 6.25-35.586 5.469-28.95 4.687-22.862 4.297-19.113 3.906-15.648 3.516-12.527 3.125-9.794 2.93-7.96 2.539-5.891 2.344-4.577 2.148-3.446 1.953-2.497 1.563-1.555 1.367-1.034 1.172-.642.976-.363.781-.177.782-.075 1.172.075.78.177.977.363 1.172.642 1.367 1.034 1.563 1.555 1.758 2.22 1.953 3.043 2.148 4.034 2.344 5.2 2.54 6.544 2.733 8.063 3.125 10.438 3.32 12.428 3.712 15.394 4.101 18.688 4.493 22.257 5.078 27.108 5.859 33.434 6.836 41.36 8.008 50.92 9.765 64.686L476.916 803H799.5V237.838l-177.344.005-67.383.117-20.898.198-11.719.228-8.203.251-6.445.276-5.274.294-4.687.328-4.102.351-3.906.4-3.71.453-3.517.504-3.32.556-3.32.644-3.32.749-3.125.812-3.125.933-3.125 1.07-3.125 1.228-3.125 1.405-3.125 1.607-3.125 1.836-3.125 2.093-3.125 2.383-3.125 2.707-3.125 3.068-3.32 3.702-3.321 4.204-3.32 4.761-3.32 5.37-3.516 6.41-3.516 7.213-3.71 8.55-3.712 9.572-3.906 11.233-3.906 12.463-4.102 14.437-4.297 16.614-4.687 19.834-5.078 23.424-5.47 27.332-6.054 32.567-6.64 38.143-7.618 46.347-9.18 58.724-11.523 76.892-15.625 107.794-.719 5.08" fill-opacity=".1"/><path fill="none" stroke="#ffc435" class="dcg-svg-curve" paint-order="fill stroke markers" d="M321.334 808h0l1.25-8.617 11.242-74.872 8.875-56.55 7.297-44.053 6.114-34.648 5.325-28.074 4.733-22.981 4.339-19.174 3.747-14.914 3.55-12.577 3.155-9.807 2.761-7.451 2.564-5.929 2.367-4.592 2.17-3.445 1.774-2.264 1.578-1.585 1.38-1.054 1.184-.655.986-.37.789-.18.789-.077 1.183.077.789.18.986.37 1.183.655 1.38 1.054 1.579 1.585 1.775 2.264 1.972 3.101 2.17 4.111 2.366 5.3 2.564 6.666 2.76 8.212 3.156 10.627 3.353 12.648 3.747 15.659 4.142 19 4.733 23.636 5.325 28.698 5.917 34.064 6.902 42.062 8.284 52.984 10.255 68.29L477.661 808" stroke-linecap="round" stroke-linejoin="round" stroke-miterlimit="10" stroke-width="5"/><path fill="#ffc435" class="dcg-svg-region" paint-order="stroke fill markers" d="M-.5 803h322.556l.296-2.039 11.132-74.223 8.79-56.123 7.226-43.787 6.25-35.586 5.469-28.95 4.687-22.862 4.297-19.113 3.906-15.648 3.516-12.527 3.125-9.794 2.93-7.96 2.539-5.891 2.344-4.577 2.148-3.446 1.953-2.497 1.563-1.555 1.367-1.034 1.172-.642.976-.363.781-.177.782-.075 1.172.075.78.177.977.363 1.172.642 1.367 1.034 1.563 1.555 1.758 2.22 1.953 3.043 2.148 4.034 2.344 5.2 2.54 6.544 2.733 8.063 3.125 10.438 3.32 12.428 3.712 15.394 4.101 18.688 4.493 22.257 5.078 27.108 5.859 33.434 6.836 41.36 8.008 50.92 9.765 64.686L476.916 803H799.5v-3.5H-.5v3.5" fill-opacity=".1"/></svg>