<svg xmlns="http://www.w3.org/2000/svg" viewBox="0 0 800 400"><path fill="#388c46" class="dcg-svg-region" paint-order="stroke fill markers" d="m399.5 199.5 27.93 30.233 14.843 15.536 12.305 12.386L465.32 268l9.766 8.957 9.18 7.978 8.398 6.886 8.008 6.168 7.617 5.483 7.227 4.836 7.03 4.347 6.641 3.77 6.446 3.333 6.25 2.92 6.054 2.528 5.86 2.158 5.86 1.87 5.663 1.529 5.664 1.253 5.47.945 5.468.682 5.469.42 5.468.155 5.47-.11 5.468-.374 5.469-.637 5.468-.9 5.47-1.16 5.663-1.475 5.664-1.748 5.86-2.092 6.054-2.462 6.055-2.76 6.25-3.153 6.445-3.569 6.64-4.003 7.032-4.586 7.227-5.07 7.617-5.719 8.008-6.4 8.593-7.283 9.18-8.213 9.766-9.18L737 252.767l12.305-12.583 14.648-15.496 21.094-22.88 2.113-2.308H399.5m-387.66 0H399.5l-2.54-2.772-20.897-22.662-14.649-15.49-12.11-12.378-10.741-10.556-9.766-9.178-9.18-8.211-8.594-7.281-8.007-6.4-7.618-5.716-7.226-5.069-7.031-4.584-6.641-4.001-6.445-3.567-6.25-3.153-6.055-2.757-6.055-2.46-5.86-2.091-5.663-1.746-5.664-1.473-5.469-1.159-5.469-.898-5.468-.636-5.47-.372-5.468-.108-5.469.157-5.468.421-5.47.685-5.468.946-5.664 1.255-5.664 1.53-5.86 1.872-5.859 2.16-6.054 2.53-6.25 2.92-6.446 3.337-6.64 3.77-7.032 4.35-7.226 4.837-7.617 5.485-8.008 6.17-8.399 6.887-9.18 7.98-9.765 8.958-10.742 10.347-12.305 12.388-14.844 15.537L11.84 199.5" fill-opacity=".1"/><path fill="none" stroke="#388c46" class="dcg-svg-curve" paint-order="fill stroke markers" d="M11.84 199.5h0l28.074-30.386 14.933-15.622 12.344-12.416 10.951-10.53 9.955-9.102 9.16-7.927 8.56-6.984 8.164-6.242 7.566-5.398 7.367-4.879 6.969-4.256 6.77-3.788 6.57-3.338 6.372-2.91 6.172-2.504 5.973-2.122 5.774-1.766 5.774-1.481 5.575-1.157 5.575-.886 5.575-.612 5.575-.339 5.575-.064 5.575.211 5.575.486 5.575.759 5.575 1.03 5.575 1.302 5.774 1.629 5.774 1.912 5.973 2.271 6.173 2.655 6.371 3.062 6.372 3.38 6.77 3.93 6.968 4.397 7.168 4.881 7.566 5.529 7.964 6.214 8.362 6.932 8.96 7.855 9.756 9.009 10.553 10.216 11.747 11.859 13.739 14.38 18.118 19.52 43.007 46.525 13.938 14.431 11.946 11.872 10.553 10.012 9.756 8.792 8.96 7.633 8.362 6.707 7.965 5.984 7.566 5.297 7.168 4.651 6.968 4.164 6.77 3.695 6.371 3.153 6.173 2.744 6.172 2.433 5.973 2.053 5.774 1.698 5.774 1.412 5.575 1.089 5.575.817 5.575.545 5.575.27 5.575-.005 5.575-.28 5.575-.554 5.575-.827 5.575-1.099 5.774-1.422 5.774-1.707 5.974-2.063 5.973-2.36 6.172-2.744 6.371-3.153 6.571-3.58 6.77-4.031 6.968-4.497 7.367-5.123 7.765-5.79 8.164-6.493 8.561-7.228 9.16-8.167 9.955-9.334 10.95-10.749 12.345-12.616 14.734-15.583 21.304-23.108 1.991-2.174" stroke-linecap="round" stroke-linejoin="round" stroke-miterlimit="10" stroke-width="10"/></svg>