<svg xmlns="http://www.w3.org/2000/svg" viewBox="0 0 800 400"><path fill="#2d70b3" class="dcg-svg-region" paint-order="stroke fill markers" d="m141.06 199.5 12.932 46.389 6.836 22.959 5.664 17.601 5.078 14.39 4.493 11.45 4.101 9.285 3.711 7.357 3.32 5.691 2.93 4.293 2.54 3.149 2.343 2.425 2.148 1.81 1.953 1.297 1.954.964 1.757.58 1.758.307 1.758.033 1.758-.24 1.758-.515 1.757-.786 1.954-1.192 1.953-1.524 2.148-2.055 2.344-2.69 2.539-3.429 2.734-4.278 3.125-5.61 3.516-7.19 3.906-9.016 4.297-11.076 4.688-13.326 5.273-16.333 6.25-20.838 8.008-28.31 5.936-21.572H141.06m258.44 0 12.89 46.244 6.837 22.968 5.664 17.613 5.078 14.402 4.492 11.462 4.102 9.296 3.71 7.368 3.32 5.703 2.93 4.303 2.735 3.378 2.344 2.394 2.148 1.781 1.953 1.272 1.953.938 1.758.556 1.758.283 1.758.01 1.758-.265 1.757-.538 1.758-.81 1.953-1.219 1.953-1.55 2.149-2.083 2.344-2.72 2.539-3.46 2.93-4.644 3.124-5.693 3.516-7.28 4.102-9.592 4.296-11.221 4.883-14.053 5.469-17.147 6.445-21.719 8.594-30.614 4.22-15.363H399.5m258.44 0 12.85 46.099 6.835 22.978 5.664 17.623 5.078 14.414 4.492 11.474 4.102 9.308 3.71 7.38 3.321 5.714 2.93 4.312 2.734 3.388 2.344 2.403 2.148 1.789 1.954 1.278 1.953.945 1.758.563 1.757.29 1.758.015 1.758-.258 1.758-.531 1.758-.804 1.953-1.211 1.953-1.543 2.148-2.076 2.344-2.711 2.54-3.453 2.733-4.303 3.125-5.636 3.516-7.218 3.906-9.047 4.297-11.106 4.688-13.355 5.273-16.36 6.25-20.863 8.008-28.328 5.824-21.17H657.94m-646.1 0h129.22l-5.818-21.145-8.008-28.33-6.25-20.863-5.273-16.362-4.688-13.357-4.296-11.108-3.907-9.049-3.515-7.22-3.125-5.638-2.735-4.304-2.539-3.454-2.344-2.713-2.148-2.077-1.953-1.544-1.953-1.212-1.758-.805-1.758-.533-1.758-.259-1.757.015-1.758.288-1.758.562-1.953.944-1.953 1.277-2.149 1.788-2.343 2.401-2.735 3.387-2.93 4.31-3.32 5.712-3.71 7.378-4.102 9.306-4.493 11.472-5.078 14.412-5.664 17.622-6.836 22.977L11.84 199.5m258.44 0H399.5l-5.86-21.296-8.007-28.322-6.25-20.855-5.274-16.352-4.687-13.346-4.297-11.096-3.906-9.038-3.516-7.21-3.125-5.627-2.734-4.295-2.54-3.446-2.343-2.704-2.148-2.07-1.954-1.536-1.953-1.205-1.758-.799-1.757-.526-1.758-.253-1.758.022-1.758.295-1.758.568-1.953.95-1.953 1.285-2.148 1.796-2.344 2.41-2.734 3.395-2.93 4.32-3.32 5.723-3.711 7.39-4.102 9.318-4.492 11.484-4.883 13.843-5.664 17.581-6.836 22.941-13.01 46.655m258.441 0h129.22l-5.9-21.447-8.009-28.315-6.25-20.846-5.273-16.341-4.688-13.335-4.297-11.085-3.906-9.027-3.515-7.198-3.125-5.618-2.735-4.286-2.539-3.437-2.344-2.696-2.148-2.062-1.953-1.53-1.953-1.197-1.758-.792-1.758-.52-1.758-.246-1.758.028-1.757.301-1.758.575-1.953.958-1.953 1.292-2.149 1.803-2.344 2.418-2.539 3.141-2.93 4.284-3.32 5.683-3.71 7.347-4.102 9.275-4.492 11.44-5.078 14.38-5.665 17.592-6.836 22.951-12.967 46.51" fill-opacity=".1"/><path fill="none" stroke="#2d70b3" class="dcg-svg-curve" paint-order="fill stroke markers" d="M11.84 199.5h0l12.942-46.422 6.968-23.385 5.774-17.89 4.978-14.05 4.58-11.615 4.18-9.383 3.784-7.4 3.385-5.69 2.986-4.258 2.589-3.094 2.389-2.353 2.19-1.726 1.991-1.207 1.991-.86 1.792-.473 1.792-.19 1.792.095 1.792.38 1.792.662 1.792.946 1.99 1.38L87.5 54.88l2.19 2.324 2.39 2.995 2.787 4.087 2.987 5.068 3.384 6.57 3.783 8.332 4.182 10.338 4.58 12.562 5.176 15.568 5.973 19.456 7.168 24.902 12.544 45.47 10.353 36.807 6.77 22.505 5.575 17.09 4.977 13.882 4.38 10.971 4.182 9.266 3.783 7.287 3.186 5.28 2.986 4.21 2.589 3.051 2.389 2.312 2.19 1.689 1.991 1.172 1.792.757 1.792.474 1.792.19 1.792-.095 1.792-.38 1.792-.662 1.792-.946 1.991-1.38 2.19-1.914 2.19-2.324 2.39-2.995 2.787-4.087 2.987-5.068 3.385-6.57 3.783-8.332 4.18-10.338 4.58-12.562 5.177-15.568 5.973-19.456 7.168-24.902 12.544-45.47 10.353-36.807 6.77-22.505 5.575-17.09 4.978-13.882 4.38-10.971 4.181-9.266 3.783-7.287 3.186-5.28 2.987-4.21 2.588-3.051 2.39-2.312 2.19-1.689 1.99-1.172 1.792-.757 1.792-.474 1.792-.19 1.792.095 1.792.38 1.792.662 1.792.946 1.991 1.38 2.19 1.914 2.19 2.324 2.39 2.995 2.787 4.087 2.987 5.068 3.385 6.57 3.783 8.332 4.181 10.338 4.58 12.562 5.176 15.568 5.973 19.456 7.168 24.902 12.544 45.47 10.353 36.807 6.77 22.505 5.575 17.09 4.978 13.882 4.38 10.971 4.181 9.266 3.783 7.287 3.186 5.28 2.987 4.21 2.588 3.051 2.39 2.312 2.19 1.689 1.99 1.172 1.792.757 1.792.474 1.792.19 1.792-.095 1.792-.38 1.792-.662 1.792-.946 1.991-1.38 2.19-1.914 2.19-2.324 2.39-2.995 2.787-4.087 2.987-5.068 3.385-6.57 3.783-8.332 4.181-10.338 4.58-12.562 5.176-15.568 5.974-19.456 7.167-24.902 12.544-45.47 10.354-36.807 6.77-22.505 5.574-17.09 4.978-13.882 4.38-10.971 4.181-9.266 3.783-7.287 3.186-5.28 2.987-4.21 2.588-3.051 2.39-2.312 2.19-1.689 1.99-1.172 1.793-.757 1.792-.474 1.792-.19 1.791.095 1.792.38 1.792.662 1.792.946 1.991 1.38 2.19 1.914 2.19 2.324 2.39 2.995 2.788 4.087 2.986 5.068 3.385 6.57 3.783 8.332 4.181 10.338 4.58 12.562 5.176 15.568 5.974 19.456 7.167 24.902 12.544 45.47 10.354 36.807 6.77 22.505 5.574 17.09 4.978 13.882 4.38 10.971 4.182 9.266 3.783 7.287 3.185 5.28 2.987 4.21 2.588 3.051 2.39 2.312 2.19 1.689 1.99 1.172 1.793.757 1.792.474 1.792.19 1.792-.095 1.792-.38 1.792-.662 1.791-.946 1.992-1.38 2.19-1.914 2.19-2.324 2.39-2.995 2.787-4.087 2.986-5.068 3.385-6.57 3.783-8.332 4.181-10.338 4.58-12.562 5.177-15.568 5.973-19.456 7.168-24.902 8.96-32.417" stroke-linecap="round" stroke-linejoin="round" stroke-miterlimit="10" stroke-width="10"/></svg>