<svg xmlns="http://www.w3.org/2000/svg" viewBox="0 0 800 400"><path fill="#388c46" class="dcg-svg-region" paint-order="stroke fill markers" d="m429.391 199.5 24.797 32.322 13.28 16.781 10.938 13.332 9.57 11.2 8.79 9.832 8.203 8.731 7.617 7.683 7.226 6.878 6.836 6.114 6.446 5.394 6.25 4.87 6.054 4.368 5.86 3.885 5.664 3.427 5.469 2.994 5.273 2.588 5.274 2.288 5.078 1.916 5.078 1.63 4.883 1.294 4.882 1.025 4.883.753 4.883.48 4.688.203 4.687-.05 4.688-.302 4.687-.554 4.883-.845 4.883-1.116 4.882-1.384 4.883-1.652 5.078-1.997 5.078-2.277 5.274-2.659 5.469-3.065 5.468-3.373 5.664-3.81 5.86-4.269 6.055-4.75 6.445-5.421 6.64-5.96 7.032-6.703 7.422-7.485 7.812-8.3 8.399-9.359 9.18-10.69 10.155-12.306 11.72-14.7 14.648-18.904 13.777-18.057H429.391m-358.691 0h358.69l-13.68-17.93-14.648-18.906-11.72-14.705-10.156-12.31-9.18-10.695-8.398-9.364-7.812-8.305-7.422-7.49-7.031-6.708-6.64-5.966-6.446-5.426-6.055-4.756-5.86-4.275-5.663-3.815-5.47-3.378-5.468-3.071-5.273-2.664-5.078-2.283-5.078-2.003-4.883-1.656-4.883-1.39-4.883-1.122-4.883-.85-4.687-.56-4.688-.307-4.687-.055-4.688.198-4.883.475-4.882.747-4.883 1.02-4.883 1.289-5.078 1.624-5.078 1.91-5.274 2.283-5.273 2.582-5.469 2.989-5.664 3.421-5.86 3.88-6.054 4.36-6.25 4.866-6.445 5.389-6.836 6.108-7.227 6.872-7.617 7.678-8.203 8.726-8.79 9.826-9.765 11.428-10.937 13.337-13.086 16.535L70.699 199.5" fill-opacity=".1"/><path fill="none" stroke="#388c46" class="dcg-svg-curve" paint-order="fill stroke markers" d="m10.918 199.5 20.088-26.181m12.939-16.54 5.22-6.593m0 0 11.097-13.515m0 0 4.62-5.396m13.883-15.754.126-.14m0 0 8.125-8.617m0 0L94.744 99m0 0 7.135-6.757m0 0 .14-.125m16.03-13.557 3.647-2.816m0 0 5.945-4.244m0 0 5.747-3.773m0 0 5.747-3.439m0 0 5.549-2.995m0 0 1.09-.526m19.508-7.692.012-.004m0 0 4.954-1.274m0 0 4.954-.996m0 0 4.954-.716m0 0 4.757-.422m0 0 4.756-.163m0 0 4.756.098m0 0 3.512.264m20.53 4.198.333.099m0 0 4.954 1.746m0 0 5.153 2.103m0 0 5.152 2.39m0 0 5.351 2.783m0 0 5.549 3.202m0 0 3.14 1.99m17.024 12.273 3.418 2.746m0 0 6.54 5.627m0 0 6.738 6.176m0 0 7.134 6.935m0 0 .627.644m14.447 15.238.582.629m0 0 8.72 9.875m0 0 9.511 11.243m0 0 2.68 3.29m13.158 16.366 7.547 9.576m0 0 12.677 16.5m12.785 16.66 20.082 26.185m12.964 16.52 4.51 5.673m0 0 10.9 13.213m0 0 5.624 6.537m13.992 15.658 6.74 7.114m0 0 7.531 7.524m0 0 7.135 6.723m0 0 2.06 1.824m16.185 13.368 1.374 1.055m0 0 5.945 4.222m0 0 5.747 3.75m0 0 5.549 3.303m0 0 5.548 2.984m0 0 3.928 1.885m19.735 7.07 1.902.485m0 0 4.954.985m0 0 4.954.704m0 0 4.756.412m0 0 4.756.152m0 0 4.757-.108m0 0 4.756-.369m0 0 1.905-.251m20.365-4.937 2.303-.817m0 0 5.153-2.114m0 0 5.152-2.401m0 0 5.35-2.794m0 0 5.55-3.213m0 0 5.746-3.659m0 0 .035-.024m16.807-12.575 1.192-.961m0 0 6.54-5.65m0 0 6.936-6.386m0 0 7.134-6.968m0 0 2.384-2.46m14.347-15.332 7.842-8.917m0 0 9.71-11.52m0 0 3.819-4.704m13.113-16.402 6.85-8.716m0 0 13.335-17.39" stroke-linecap="round" stroke-linejoin="round" stroke-miterlimit="10" stroke-width="7.5"/><path fill="none" stroke="#388c46" class="dcg-svg-curve" paint-order="fill stroke markers" d="M70.7 199.5h0l25.087-32.695 13.34-16.842 10.951-13.332 9.756-11.394 8.96-9.988 8.163-8.65 7.766-7.789 7.168-6.777 6.968-6.183 6.57-5.443 6.372-4.9 5.973-4.245 5.775-3.77 5.575-3.32 5.575-2.996 5.375-2.578 5.177-2.187 5.177-1.893 4.978-1.539 4.977-1.26 4.978-.98 4.779-.675 4.778-.413 4.779-.15 4.778.112 4.779.375 4.778.636 4.978.94 4.978 1.222 4.978 1.5 4.977 1.777 5.177 2.136 5.177 2.427 5.376 2.822 5.575 3.245 5.774 3.695 5.774 4.025 5.973 4.5 6.372 5.164 6.57 5.7 6.969 6.444 7.168 7.028 7.765 8.04 8.163 8.893 8.96 10.225 9.756 11.615 11.15 13.783 13.34 17.025 19.513 25.493 26.083 34 13.34 16.838 10.951 13.326 9.756 11.39 8.761 9.766 8.163 8.656 7.766 7.794 7.167 6.783 6.97 6.189 6.57 5.448 6.371 4.907 5.973 4.25 5.775 3.776 5.575 3.325 5.575 3.002 5.375 2.584 5.177 2.192 5.177 1.899 4.978 1.545 4.977 1.266 4.978.985 4.779.68 4.778.419 4.779.156 4.778-.107 4.779-.37 4.778-.63 4.978-.935 4.978-1.216 4.977-1.495 4.978-1.77 5.177-2.131 5.177-2.421 5.376-2.817 5.575-3.24 5.575-3.556 5.774-4.008 5.973-4.483 6.371-5.146 6.57-5.684 6.97-6.427 7.168-7.011 7.765-8.025 8.163-8.876 8.96-10.21 9.756-11.6 10.951-13.52 13.141-16.751 18.915-24.693 2.19-2.877" stroke-linecap="round" stroke-linejoin="round" stroke-miterlimit="10" stroke-width="10"/></svg>