<svg xmlns="http://www.w3.org/2000/svg" xmlns:xlink="http://www.w3.org/1999/xlink">
<symbol id="icon-soundcloud" viewBox="0 0 16 16">
<title>SoundCloud</title>
<path d="m 4.0249181,12.010589 h 0.997971 V 5.7261746 c -0.3742597,0.1057882 -0.7115755,0.2979058 -0.997971,0.5503723 0,5.46e-5 0,5.7340421 0,5.7340421 z M 2.0289218,7.7591148 v 4.2444602 l 0.06435,0.007 H 3.0268926 V 7.752592 h -0.933621 c 0,5.48e-5 -0.06435,0.00652 -0.06435,0.00652 z M 0.03292529,9.8808512 c 0,0.7729648 0.402214,1.4431028 0.99797081,1.8168688 V 8.0660099 C 0.43513929,8.439228 0.03292529,9.1094201 0.03292529,9.8808512 Z M 6.0209147,12.010589 h 0.997971 V 6.0031422 C 6.7204866,5.8169989 6.3826773,5.6942739 6.0209147,5.646861 Z M 13.940496,7.7526468 h -0.56139 c 0.02845,-0.173646 0.04643,-0.3498131 0.04643,-0.5319551 0,-1.7639751 -1.383741,-3.1935943 -3.090766,-3.1935943 -0.9261121,0 -1.7514784,0.4261671 -2.3178557,1.0937832 v 6.8896544 h 5.9235847 c 1.137195,0 2.060347,-0.953079 2.060347,-2.1297387 0,-1.1755633 -0.923152,-2.1281495 -2.060347,-2.1281495 z"></path>
</symbol>
</svg>
